<?xml version="1.0" encoding="UTF-8" standalone="no"?>
<!DOCTYPE svg PUBLIC "-//W3C//DTD SVG 1.1//EN"
 "http://www.w3.org/Graphics/SVG/1.1/DTD/svg11.dtd">
<!-- Generated by graphviz version 2.40.1 (0)
 -->
<!-- Title: structs Pages: 1 -->
<svg width="134pt" height="128pt"
 viewBox="0.00 0.00 134.00 128.00" xmlns="http://www.w3.org/2000/svg" xmlns:xlink="http://www.w3.org/1999/xlink">
<g id="graph0" class="graph" transform="scale(1 1) rotate(0) translate(4 124)">
<title>structs</title>
<polygon fill="#ffffff" stroke="transparent" points="-4,4 -4,-124 130,-124 130,4 -4,4"/>
<!-- n0 -->
<g id="node1" class="node">
<title>n0</title>
<polygon fill="#d3d3d3" stroke="transparent" points="47,-4 47,-44 79,-44 79,-4 47,-4"/>
<polygon fill="#add8e6" stroke="transparent" points="49,-25 49,-42 77,-42 77,-25 49,-25"/>
<polygon fill="none" stroke="#000000" points="49,-25 49,-42 77,-42 77,-25 49,-25"/>
<text text-anchor="start" x="59.5" y="-31" font-family="Courier" font-size="10.00" fill="#000000">0</text>
<polygon fill="none" stroke="#000000" points="49,-6 49,-23 62,-23 62,-6 49,-6"/>
<text text-anchor="start" x="52" y="-12" font-family="Courier" font-size="10.00" fill="#000000">L</text>
<polygon fill="none" stroke="#000000" points="64,-6 64,-23 77,-23 77,-6 64,-6"/>
<text text-anchor="start" x="67" y="-12" font-family="Courier" font-size="10.00" fill="#000000">R</text>
</g>
<!-- n0&#45;&#45;n0 -->
<g id="edge1" class="edge">
<title>n0:M&#45;&#45;n0:M</title>
<path fill="none" stroke="#ff0000" d="M65.8736,-42.0365C71.868,-62.2808 70.9102,-87 63,-87 55.0898,-87 54.132,-62.2808 60.1264,-42.0365"/>
</g>
<!-- n1 -->
<g id="node2" class="node">
<title>n1</title>
<polygon fill="#d3d3d3" stroke="transparent" points="18,-91.5 18,-112.5 36,-112.5 36,-91.5 18,-91.5"/>
<polygon fill="#f5f5dc" stroke="transparent" points="20,-93 20,-110 34,-110 34,-93 20,-93"/>
<polygon fill="none" stroke="#000000" points="20,-93 20,-110 34,-110 34,-93 20,-93"/>
<text text-anchor="start" x="23.5" y="-99" font-family="Courier" font-size="10.00" fill="#000000">1</text>
</g>
<!-- n1&#45;&#45;n0 -->
<g id="edge2" class="edge">
<title>n1:L&#45;&#45;n0:L</title>
<path fill="none" stroke="#000000" d="M25.6125,-92.9712C22.3245,-71.4336 16.5944,-14 49,-14"/>
</g>
<!-- n2 -->
<g id="node3" class="node">
<title>n2</title>
<polygon fill="#d3d3d3" stroke="transparent" points="90,-91.5 90,-112.5 108,-112.5 108,-91.5 90,-91.5"/>
<polygon fill="#f5f5dc" stroke="transparent" points="92,-93 92,-110 106,-110 106,-93 92,-93"/>
<polygon fill="none" stroke="#000000" points="92,-93 92,-110 106,-110 106,-93 92,-93"/>
<text text-anchor="start" x="95.5" y="-99" font-family="Courier" font-size="10.00" fill="#000000">2</text>
</g>
<!-- n2&#45;&#45;n0 -->
<g id="edge3" class="edge">
<title>n2:L&#45;&#45;n0:R</title>
<path fill="none" stroke="#000000" d="M100.3875,-92.9712C103.6755,-71.4336 109.4056,-14 77,-14"/>
</g>
</g>
</svg>
