<?xml version="1.0" encoding="UTF-8" standalone="no"?>
<!DOCTYPE svg PUBLIC "-//W3C//DTD SVG 1.1//EN"
 "http://www.w3.org/Graphics/SVG/1.1/DTD/svg11.dtd">
<!-- Generated by graphviz version 2.40.1 (0)
 -->
<!-- Title: structs Pages: 1 -->
<svg width="206pt" height="212pt"
 viewBox="0.00 0.00 206.00 212.00" xmlns="http://www.w3.org/2000/svg" xmlns:xlink="http://www.w3.org/1999/xlink">
<g id="graph0" class="graph" transform="scale(1 1) rotate(0) translate(4 208)">
<title>structs</title>
<polygon fill="#ffffff" stroke="transparent" points="-4,4 -4,-208 202,-208 202,4 -4,4"/>
<!-- n0 -->
<g id="node1" class="node">
<title>n0</title>
<polygon fill="#d3d3d3" stroke="transparent" points="83,-4 83,-44 115,-44 115,-4 83,-4"/>
<polygon fill="#add8e6" stroke="transparent" points="85,-25 85,-42 113,-42 113,-25 85,-25"/>
<polygon fill="none" stroke="#000000" points="85,-25 85,-42 113,-42 113,-25 85,-25"/>
<text text-anchor="start" x="95.5" y="-31" font-family="Courier" font-size="10.00" fill="#000000">0</text>
<polygon fill="none" stroke="#000000" points="85,-6 85,-23 98,-23 98,-6 85,-6"/>
<text text-anchor="start" x="88" y="-12" font-family="Courier" font-size="10.00" fill="#000000">L</text>
<polygon fill="none" stroke="#000000" points="100,-6 100,-23 113,-23 113,-6 100,-6"/>
<text text-anchor="start" x="103" y="-12" font-family="Courier" font-size="10.00" fill="#000000">R</text>
</g>
<!-- n1 -->
<g id="node2" class="node">
<title>n1</title>
<polygon fill="#d3d3d3" stroke="transparent" points="83,-88 83,-128 115,-128 115,-88 83,-88"/>
<polygon fill="#98fb98" stroke="transparent" points="85,-109 85,-126 113,-126 113,-109 85,-109"/>
<polygon fill="none" stroke="#000000" points="85,-109 85,-126 113,-126 113,-109 85,-109"/>
<text text-anchor="start" x="95.5" y="-115" font-family="Courier" font-size="10.00" fill="#000000">1</text>
<polygon fill="none" stroke="#000000" points="85,-90 85,-107 98,-107 98,-90 85,-90"/>
<text text-anchor="start" x="88" y="-96" font-family="Courier" font-size="10.00" fill="#000000">L</text>
<polygon fill="none" stroke="#000000" points="100,-90 100,-107 113,-107 113,-90 100,-90"/>
<text text-anchor="start" x="103" y="-96" font-family="Courier" font-size="10.00" fill="#000000">R</text>
</g>
<!-- n1&#45;&#45;n0 -->
<g id="edge1" class="edge">
<title>n1:M&#45;&#45;n0:M</title>
<path fill="none" stroke="#ff0000" d="M113,-118C128.1111,-118 115.4205,-98.916 113,-84 109.8482,-64.5777 99,-61.6764 99,-42"/>
</g>
<!-- n2 -->
<g id="node3" class="node">
<title>n2</title>
<polygon fill="#d3d3d3" stroke="transparent" points="18,-97.5 18,-118.5 36,-118.5 36,-97.5 18,-97.5"/>
<polygon fill="#f5f5dc" stroke="transparent" points="20,-99 20,-116 34,-116 34,-99 20,-99"/>
<polygon fill="none" stroke="#000000" points="20,-99 20,-116 34,-116 34,-99 20,-99"/>
<text text-anchor="start" x="23.5" y="-105" font-family="Courier" font-size="10.00" fill="#000000">2</text>
</g>
<!-- n2&#45;&#45;n0 -->
<g id="edge2" class="edge">
<title>n2:L&#45;&#45;n0:L</title>
<path fill="none" stroke="#000000" d="M28.1256,-98.7469C31.739,-75.9863 45.2306,-14 85,-14"/>
</g>
<!-- n3 -->
<g id="node4" class="node">
<title>n3</title>
<polygon fill="#d3d3d3" stroke="transparent" points="162,-97.5 162,-118.5 180,-118.5 180,-97.5 162,-97.5"/>
<polygon fill="#f5f5dc" stroke="transparent" points="164,-99 164,-116 178,-116 178,-99 164,-99"/>
<polygon fill="none" stroke="#000000" points="164,-99 164,-116 178,-116 178,-99 164,-99"/>
<text text-anchor="start" x="167.5" y="-105" font-family="Courier" font-size="10.00" fill="#000000">3</text>
</g>
<!-- n3&#45;&#45;n0 -->
<g id="edge3" class="edge">
<title>n3:L&#45;&#45;n0:R</title>
<path fill="none" stroke="#000000" d="M169.8744,-98.7469C166.261,-75.9863 152.7694,-14 113,-14"/>
</g>
<!-- n4 -->
<g id="node5" class="node">
<title>n4</title>
<polygon fill="#d3d3d3" stroke="transparent" points="54,-175.5 54,-196.5 72,-196.5 72,-175.5 54,-175.5"/>
<polygon fill="#f5f5dc" stroke="transparent" points="56,-177 56,-194 70,-194 70,-177 56,-177"/>
<polygon fill="none" stroke="#000000" points="56,-177 56,-194 70,-194 70,-177 56,-177"/>
<text text-anchor="start" x="59.5" y="-183" font-family="Courier" font-size="10.00" fill="#000000">4</text>
</g>
<!-- n4&#45;&#45;n1 -->
<g id="edge4" class="edge">
<title>n4:L&#45;&#45;n1:L</title>
<path fill="none" stroke="#000000" d="M63.3214,-176.9712C64.4005,-155.4336 68.7972,-98 85,-98"/>
</g>
<!-- n5 -->
<g id="node6" class="node">
<title>n5</title>
<polygon fill="#d3d3d3" stroke="transparent" points="126,-175.5 126,-196.5 144,-196.5 144,-175.5 126,-175.5"/>
<polygon fill="#f5f5dc" stroke="transparent" points="128,-177 128,-194 142,-194 142,-177 128,-177"/>
<polygon fill="none" stroke="#000000" points="128,-177 128,-194 142,-194 142,-177 128,-177"/>
<text text-anchor="start" x="131.5" y="-183" font-family="Courier" font-size="10.00" fill="#000000">5</text>
</g>
<!-- n5&#45;&#45;n1 -->
<g id="edge5" class="edge">
<title>n5:L&#45;&#45;n1:R</title>
<path fill="none" stroke="#000000" d="M134.6786,-176.9712C133.5995,-155.4336 129.2028,-98 113,-98"/>
</g>
</g>
</svg>
