<?xml version="1.0" encoding="UTF-8" standalone="no"?>
<!DOCTYPE svg PUBLIC "-//W3C//DTD SVG 1.1//EN"
 "http://www.w3.org/Graphics/SVG/1.1/DTD/svg11.dtd">
<!-- Generated by graphviz version 2.40.1 (0)
 -->
<!-- Title: structs Pages: 1 -->
<svg width="352pt" height="212pt"
 viewBox="0.00 0.00 351.94 212.00" xmlns="http://www.w3.org/2000/svg" xmlns:xlink="http://www.w3.org/1999/xlink">
<g id="graph0" class="graph" transform="scale(1 1) rotate(0) translate(4 208)">
<title>structs</title>
<polygon fill="#ffffff" stroke="transparent" points="-4,4 -4,-208 347.9427,-208 347.9427,4 -4,4"/>
<!-- n0 -->
<g id="node1" class="node">
<title>n0</title>
<polygon fill="#ff4500" stroke="transparent" points="20,-171.5 20,-188.5 34,-188.5 34,-171.5 20,-171.5"/>
<polygon fill="#ff4500" stroke="transparent" points="21,-172 21,-187 33,-187 33,-172 21,-172"/>
<text text-anchor="start" x="23.5" y="-177" font-family="Courier" font-size="10.00" fill="#000000">0</text>
<polygon fill="none" stroke="#000000" points="20,-171.5 20,-188.5 34,-188.5 34,-171.5 20,-171.5"/>
</g>
<!-- n1 -->
<g id="node2" class="node">
<title>n1</title>
<polygon fill="#ff4500" stroke="transparent" points="92,-171.5 92,-188.5 106,-188.5 106,-171.5 92,-171.5"/>
<polygon fill="#ff4500" stroke="transparent" points="93,-172 93,-187 105,-187 105,-172 93,-172"/>
<text text-anchor="start" x="95.5" y="-177" font-family="Courier" font-size="10.00" fill="#000000">1</text>
<polygon fill="none" stroke="#000000" points="92,-171.5 92,-188.5 106,-188.5 106,-171.5 92,-171.5"/>
</g>
<!-- n2 -->
<g id="node3" class="node">
<title>n2</title>
<polygon fill="#d3d3d3" stroke="transparent" points="90,-85.5 90,-106.5 108,-106.5 108,-85.5 90,-85.5"/>
<polygon fill="#f5f5dc" stroke="transparent" points="92,-87 92,-104 106,-104 106,-87 92,-87"/>
<polygon fill="none" stroke="#000000" points="92,-87 92,-104 106,-104 106,-87 92,-87"/>
<text text-anchor="start" x="95.5" y="-93" font-family="Courier" font-size="10.00" fill="#000000">2</text>
</g>
<!-- n3 -->
<g id="node4" class="node">
<title>n3</title>
<polygon fill="#d3d3d3" stroke="transparent" points="234,-85.5 234,-106.5 252,-106.5 252,-85.5 234,-85.5"/>
<polygon fill="#f5f5dc" stroke="transparent" points="236,-87 236,-104 250,-104 250,-87 236,-87"/>
<polygon fill="none" stroke="#000000" points="236,-87 236,-104 250,-104 250,-87 236,-87"/>
<text text-anchor="start" x="239.5" y="-93" font-family="Courier" font-size="10.00" fill="#000000">3</text>
</g>
<!-- n4 -->
<g id="node5" class="node">
<title>n4</title>
<polygon fill="#d3d3d3" stroke="transparent" points="162,-7.5 162,-28.5 180,-28.5 180,-7.5 162,-7.5"/>
<polygon fill="#f5f5dc" stroke="transparent" points="164,-9 164,-26 178,-26 178,-9 164,-9"/>
<polygon fill="none" stroke="#000000" points="164,-9 164,-26 178,-26 178,-9 164,-9"/>
<text text-anchor="start" x="167.5" y="-15" font-family="Courier" font-size="10.00" fill="#000000">4</text>
</g>
<!-- n5 -->
<g id="node6" class="node">
<title>n5</title>
<polygon fill="#d3d3d3" stroke="transparent" points="306,-7.5 306,-28.5 324,-28.5 324,-7.5 306,-7.5"/>
<polygon fill="#f5f5dc" stroke="transparent" points="308,-9 308,-26 322,-26 322,-9 308,-9"/>
<polygon fill="none" stroke="#000000" points="308,-9 308,-26 322,-26 322,-9 308,-9"/>
<text text-anchor="start" x="311.5" y="-15" font-family="Courier" font-size="10.00" fill="#000000">5</text>
</g>
<!-- n6 -->
<g id="node7" class="node">
<title>n6</title>
<polygon fill="#d3d3d3" stroke="transparent" points="155,-76 155,-116 187,-116 187,-76 155,-76"/>
<polygon fill="#add8e6" stroke="transparent" points="157,-97 157,-114 185,-114 185,-97 157,-97"/>
<polygon fill="none" stroke="#000000" points="157,-97 157,-114 185,-114 185,-97 157,-97"/>
<text text-anchor="start" x="167.5" y="-103" font-family="Courier" font-size="10.00" fill="#000000">6</text>
<polygon fill="none" stroke="#000000" points="157,-78 157,-95 170,-95 170,-78 157,-78"/>
<text text-anchor="start" x="160" y="-84" font-family="Courier" font-size="10.00" fill="#000000">L</text>
<polygon fill="none" stroke="#000000" points="172,-78 172,-95 185,-95 185,-78 172,-78"/>
<text text-anchor="start" x="175" y="-84" font-family="Courier" font-size="10.00" fill="#000000">R</text>
</g>
<!-- n6&#45;&#45;n4 -->
<g id="edge1" class="edge">
<title>n6:M&#45;&#45;n4:L</title>
<path fill="none" stroke="#000000" d="M185,-106C217.0648,-106 188.7983,-48.9287 176.2633,-26.1893"/>
</g>
<!-- n7 -->
<g id="node8" class="node">
<title>n7</title>
<polygon fill="#d3d3d3" stroke="transparent" points="299,-76 299,-116 331,-116 331,-76 299,-76"/>
<polygon fill="#add8e6" stroke="transparent" points="301,-97 301,-114 329,-114 329,-97 301,-97"/>
<polygon fill="none" stroke="#000000" points="301,-97 301,-114 329,-114 329,-97 301,-97"/>
<text text-anchor="start" x="311.5" y="-103" font-family="Courier" font-size="10.00" fill="#000000">7</text>
<polygon fill="none" stroke="#000000" points="301,-78 301,-95 314,-95 314,-78 301,-78"/>
<text text-anchor="start" x="304" y="-84" font-family="Courier" font-size="10.00" fill="#000000">L</text>
<polygon fill="none" stroke="#000000" points="316,-78 316,-95 329,-95 329,-78 316,-78"/>
<text text-anchor="start" x="319" y="-84" font-family="Courier" font-size="10.00" fill="#000000">R</text>
</g>
<!-- n7&#45;&#45;n5 -->
<g id="edge2" class="edge">
<title>n7:M&#45;&#45;n5:L</title>
<path fill="none" stroke="#000000" d="M329,-106C361.0648,-106 332.7983,-48.9287 320.2633,-26.1893"/>
</g>
<!-- n8 -->
<g id="node9" class="node">
<title>n8</title>
<polygon fill="#d3d3d3" stroke="transparent" points="155,-160 155,-200 187,-200 187,-160 155,-160"/>
<polygon fill="#98fb98" stroke="transparent" points="157,-181 157,-198 185,-198 185,-181 157,-181"/>
<polygon fill="none" stroke="#000000" points="157,-181 157,-198 185,-198 185,-181 157,-181"/>
<text text-anchor="start" x="167.5" y="-187" font-family="Courier" font-size="10.00" fill="#000000">8</text>
<polygon fill="none" stroke="#000000" points="157,-162 157,-179 170,-179 170,-162 157,-162"/>
<text text-anchor="start" x="160" y="-168" font-family="Courier" font-size="10.00" fill="#000000">L</text>
<polygon fill="none" stroke="#000000" points="172,-162 172,-179 185,-179 185,-162 172,-162"/>
<text text-anchor="start" x="175" y="-168" font-family="Courier" font-size="10.00" fill="#000000">R</text>
</g>
<!-- n8&#45;&#45;n2 -->
<g id="edge3" class="edge">
<title>n8:M&#45;&#45;n2:L</title>
<path fill="none" stroke="#000000" d="M157,-190C155.75,-190 118.5997,-127.8867 104.4239,-104.109"/>
</g>
<!-- n8&#45;&#45;n6 -->
<g id="edge5" class="edge">
<title>n8:L&#45;&#45;n6:L</title>
<path fill="none" stroke="#000000" d="M163,-162C163,-128.1171 123.1171,-86 157,-86"/>
</g>
<!-- n8&#45;&#45;n7 -->
<g id="edge7" class="edge">
<title>n8:R&#45;&#45;n7:L</title>
<path fill="none" stroke="#000000" d="M185,-170C196.5897,-170 196.9147,-161.7102 207,-156 238.1332,-138.3727 252.3415,-143.8605 279,-120 292.4113,-107.9963 283.0014,-86 301,-86"/>
</g>
<!-- n9 -->
<g id="node10" class="node">
<title>n9</title>
<polygon fill="#d3d3d3" stroke="transparent" points="227,-160 227,-200 259,-200 259,-160 227,-160"/>
<polygon fill="#98fb98" stroke="transparent" points="229,-181 229,-198 257,-198 257,-181 229,-181"/>
<polygon fill="none" stroke="#000000" points="229,-181 229,-198 257,-198 257,-181 229,-181"/>
<text text-anchor="start" x="239.5" y="-187" font-family="Courier" font-size="10.00" fill="#000000">9</text>
<polygon fill="none" stroke="#000000" points="229,-162 229,-179 242,-179 242,-162 229,-162"/>
<text text-anchor="start" x="232" y="-168" font-family="Courier" font-size="10.00" fill="#000000">L</text>
<polygon fill="none" stroke="#000000" points="244,-162 244,-179 257,-179 257,-162 244,-162"/>
<text text-anchor="start" x="247" y="-168" font-family="Courier" font-size="10.00" fill="#000000">R</text>
</g>
<!-- n9&#45;&#45;n3 -->
<g id="edge4" class="edge">
<title>n9:M&#45;&#45;n3:L</title>
<path fill="none" stroke="#000000" d="M257,-190C291.5094,-190 261.0571,-127.8867 248.1353,-104.109"/>
</g>
<!-- n9&#45;&#45;n6 -->
<g id="edge6" class="edge">
<title>n9:L&#45;&#45;n6:R</title>
<path fill="none" stroke="#000000" d="M235,-162C235,-139.5655 219.3163,-138.7515 207,-120 197.119,-104.9562 202.9986,-86 185,-86"/>
</g>
<!-- n9&#45;&#45;n7 -->
<g id="edge8" class="edge">
<title>n9:R&#45;&#45;n7:R</title>
<path fill="none" stroke="#000000" d="M251,-162C251,-122.6271 308.8101,-153.8022 329,-120 336.7488,-107.0269 344.1111,-86 329,-86"/>
</g>
</g>
</svg>
