<?xml version="1.0" encoding="UTF-8" standalone="no"?>
<!DOCTYPE svg PUBLIC "-//W3C//DTD SVG 1.1//EN"
 "http://www.w3.org/Graphics/SVG/1.1/DTD/svg11.dtd">
<!-- Generated by graphviz version 2.40.1 (0)
 -->
<!-- Title: structs Pages: 1 -->
<svg width="206pt" height="62pt"
 viewBox="0.00 0.00 206.00 62.00" xmlns="http://www.w3.org/2000/svg" xmlns:xlink="http://www.w3.org/1999/xlink">
<g id="graph0" class="graph" transform="scale(1 1) rotate(0) translate(4 58)">
<title>structs</title>
<polygon fill="#ffffff" stroke="transparent" points="-4,4 -4,-58 202,-58 202,4 -4,4"/>
<!-- n0 -->
<g id="node1" class="node">
<title>n0</title>
<polygon fill="#ff4500" stroke="transparent" points="20,-9.5 20,-26.5 34,-26.5 34,-9.5 20,-9.5"/>
<polygon fill="#ff4500" stroke="transparent" points="21,-10 21,-25 33,-25 33,-10 21,-10"/>
<text text-anchor="start" x="23.5" y="-15" font-family="Courier" font-size="10.00" fill="#000000">0</text>
<polygon fill="none" stroke="#000000" points="20,-9.5 20,-26.5 34,-26.5 34,-9.5 20,-9.5"/>
</g>
<!-- n1 -->
<g id="node2" class="node">
<title>n1</title>
<polygon fill="#d3d3d3" stroke="transparent" points="90,-7.5 90,-28.5 108,-28.5 108,-7.5 90,-7.5"/>
<polygon fill="#f5f5dc" stroke="transparent" points="92,-9 92,-26 106,-26 106,-9 92,-9"/>
<polygon fill="none" stroke="#000000" points="92,-9 92,-26 106,-26 106,-9 92,-9"/>
<text text-anchor="start" x="95.5" y="-15" font-family="Courier" font-size="10.00" fill="#000000">1</text>
</g>
<!-- n1&#45;&#45;n1 -->
<g id="edge1" class="edge">
<title>n1:L&#45;&#45;n1:L</title>
<path fill="none" stroke="#000000" d="M103.6143,-26.3434C107.5693,-38.7412 106.0313,-54 99,-54 91.9688,-54 90.4307,-38.7412 94.3857,-26.3434"/>
</g>
<!-- n2 -->
<g id="node3" class="node">
<title>n2</title>
<polygon fill="#d3d3d3" stroke="transparent" points="162,-7.5 162,-28.5 180,-28.5 180,-7.5 162,-7.5"/>
<polygon fill="#f5f5dc" stroke="transparent" points="164,-9 164,-26 178,-26 178,-9 164,-9"/>
<polygon fill="none" stroke="#000000" points="164,-9 164,-26 178,-26 178,-9 164,-9"/>
<text text-anchor="start" x="167.5" y="-15" font-family="Courier" font-size="10.00" fill="#000000">2</text>
</g>
<!-- n2&#45;&#45;n2 -->
<g id="edge2" class="edge">
<title>n2:L&#45;&#45;n2:L</title>
<path fill="none" stroke="#000000" d="M175.6143,-26.3434C179.5693,-38.7412 178.0313,-54 171,-54 163.9688,-54 162.4307,-38.7412 166.3857,-26.3434"/>
</g>
</g>
</svg>
