<?xml version="1.0" encoding="UTF-8" standalone="no"?>
<!DOCTYPE svg PUBLIC "-//W3C//DTD SVG 1.1//EN"
 "http://www.w3.org/Graphics/SVG/1.1/DTD/svg11.dtd">
<!-- Generated by graphviz version 2.40.1 (0)
 -->
<!-- Title: structs Pages: 1 -->
<svg width="278pt" height="116pt"
 viewBox="0.00 0.00 278.00 116.00" xmlns="http://www.w3.org/2000/svg" xmlns:xlink="http://www.w3.org/1999/xlink">
<g id="graph0" class="graph" transform="scale(1 1) rotate(0) translate(4 112)">
<title>structs</title>
<polygon fill="#ffffff" stroke="transparent" points="-4,4 -4,-112 274,-112 274,4 -4,4"/>
<!-- n0 -->
<g id="node1" class="node">
<title>n0</title>
<polygon fill="#ff4500" stroke="transparent" points="20,-81.5 20,-98.5 34,-98.5 34,-81.5 20,-81.5"/>
<polygon fill="#ff4500" stroke="transparent" points="21,-82 21,-97 33,-97 33,-82 21,-82"/>
<text text-anchor="start" x="23.5" y="-87" font-family="Courier" font-size="10.00" fill="#000000">0</text>
<polygon fill="none" stroke="#000000" points="20,-81.5 20,-98.5 34,-98.5 34,-81.5 20,-81.5"/>
</g>
<!-- n1 -->
<g id="node2" class="node">
<title>n1</title>
<polygon fill="#ff4500" stroke="transparent" points="92,-81.5 92,-98.5 106,-98.5 106,-81.5 92,-81.5"/>
<polygon fill="#ff4500" stroke="transparent" points="93,-82 93,-97 105,-97 105,-82 93,-82"/>
<text text-anchor="start" x="95.5" y="-87" font-family="Courier" font-size="10.00" fill="#000000">1</text>
<polygon fill="none" stroke="#000000" points="92,-81.5 92,-98.5 106,-98.5 106,-81.5 92,-81.5"/>
</g>
<!-- n2 -->
<g id="node3" class="node">
<title>n2</title>
<polygon fill="#d3d3d3" stroke="transparent" points="162,-7.5 162,-28.5 180,-28.5 180,-7.5 162,-7.5"/>
<polygon fill="#f5f5dc" stroke="transparent" points="164,-9 164,-26 178,-26 178,-9 164,-9"/>
<polygon fill="none" stroke="#000000" points="164,-9 164,-26 178,-26 178,-9 164,-9"/>
<text text-anchor="start" x="167.5" y="-15" font-family="Courier" font-size="10.00" fill="#000000">2</text>
</g>
<!-- n3 -->
<g id="node4" class="node">
<title>n3</title>
<polygon fill="#d3d3d3" stroke="transparent" points="234,-7.5 234,-28.5 252,-28.5 252,-7.5 234,-7.5"/>
<polygon fill="#f5f5dc" stroke="transparent" points="236,-9 236,-26 250,-26 250,-9 236,-9"/>
<polygon fill="none" stroke="#000000" points="236,-9 236,-26 250,-26 250,-9 236,-9"/>
<text text-anchor="start" x="239.5" y="-15" font-family="Courier" font-size="10.00" fill="#000000">3</text>
</g>
<!-- n4 -->
<g id="node5" class="node">
<title>n4</title>
<polygon fill="#d3d3d3" stroke="transparent" points="162,-79.5 162,-100.5 180,-100.5 180,-79.5 162,-79.5"/>
<polygon fill="#f5f5dc" stroke="transparent" points="164,-81 164,-98 178,-98 178,-81 164,-81"/>
<polygon fill="none" stroke="#000000" points="164,-81 164,-98 178,-98 178,-81 164,-81"/>
<text text-anchor="start" x="167.5" y="-87" font-family="Courier" font-size="10.00" fill="#000000">4</text>
</g>
<!-- n4&#45;&#45;n2 -->
<g id="edge1" class="edge">
<title>n4:L&#45;&#45;n2:L</title>
<path fill="none" stroke="#000000" d="M171,-80.7407C171,-67.1476 171,-40.1661 171,-26.0642"/>
</g>
<!-- n5 -->
<g id="node6" class="node">
<title>n5</title>
<polygon fill="#d3d3d3" stroke="transparent" points="234,-79.5 234,-100.5 252,-100.5 252,-79.5 234,-79.5"/>
<polygon fill="#f5f5dc" stroke="transparent" points="236,-81 236,-98 250,-98 250,-81 236,-81"/>
<polygon fill="none" stroke="#000000" points="236,-81 236,-98 250,-98 250,-81 236,-81"/>
<text text-anchor="start" x="239.5" y="-87" font-family="Courier" font-size="10.00" fill="#000000">5</text>
</g>
<!-- n5&#45;&#45;n3 -->
<g id="edge2" class="edge">
<title>n5:L&#45;&#45;n3:L</title>
<path fill="none" stroke="#000000" d="M243,-80.7407C243,-67.1476 243,-40.1661 243,-26.0642"/>
</g>
</g>
</svg>
